<?xml version="1.0" encoding="iso-8859-1"?>
<!DOCTYPE svg PUBLIC "-//W3C//DTD SVG 1.1//EN" "http://www.w3.org/Graphics/SVG/1.1/DTD/svg11.dtd">
<svg 
 version="1.1" xmlns="http://www.w3.org/2000/svg" xmlns:xlink="http://www.w3.org/1999/xlink" x="0px" y="0px" width="512px"
	 height="512px" viewBox="0 0 512 512" style="enable-background:new 0 0 512 512;" xml:space="preserve"
><g fill="#35fb00" id="afcae5a789ccd549f9c6e2a2f811c08a"><g fill="#35fb00"></g><path style="display: inline;" d="M462.976,298.432c-19.658,96.836-105.249,169.725-207.887,169.725
		c-86.98,0-161.649-52.384-194.389-127.294h45.879v-2.872c28.948,52.266,84.647,87.735,148.51,87.735
		c78.932,0,145.403-54.181,164.289-127.294h-45.116l68.62-84.863l68.619,84.863H462.976z M69.12,298.432l68.62-84.863H90.8
		c18.886-73.114,85.356-127.294,164.288-127.294c62.678,0,117.461,34.185,146.835,84.862h47.562
		C416.746,96.224,342.072,43.843,255.088,43.843c-102.638,0-188.229,72.889-207.888,169.726H0.5L69.12,298.432z"></path></g></svg>